<?xml version="1.0" ?><svg viewBox="0 0 64 64" xmlns="http://www.w3.org/2000/svg"><defs><style>.a{fill:none;stroke:#fff;stroke-linecap:round;stroke-linejoin:round;stroke-width:2px;}</style></defs><title/><path class="a" d="M55,20V45L45,55H13a4,4,0,0,1-4-4V20Z"/><path class="a" d="M42.81,27.69a7.64,7.64,0,0,0-10.81,0h0a7.64,7.64,0,0,0-10.81,0c-3,3-2.15,8.35.19,11.86s8.16,8,10,9.33a1,1,0,0,0,1.17,0c1.86-1.37,7.67-5.79,10-9.33S45.79,30.68,42.81,27.69Z"/><path class="a" d="M55,45,45,55V49a4,4,0,0,1,4-4Z"/><path class="a" d="M51,9a4,4,0,0,1,4,4v7H9V13a4,4,0,0,1,4-4"/><line class="a" x1="18.75" x2="45.5" y1="9" y2="9"/><rect class="a" height="8" rx="2.5" ry="2.5" width="5" x="13" y="5"/><rect class="a" height="8" rx="2.5" ry="2.5" width="5" x="46" y="5"/></svg>
